<svg width="101" height="55" viewBox="0 0 101 55" fill="none" xmlns="http://www.w3.org/2000/svg">
<g filter="url(#filter0_d_2_2)">
<path d="M38.45 1.75C37.95 3.05 37.4333 4.63333 36.9 6.5C36.3667 8.33333 35.8167 10.5833 35.25 13.25H34.15C34.45 11.55 34.5667 10.0833 34.5 8.85C34.4667 7.58333 34.2167 6.51667 33.75 5.65C33.1167 4.45 32.25 3.56667 31.15 3C30.0833 2.43333 28.9 2.15 27.6 2.15C25.9333 2.15 24.3 2.61667 22.7 3.55C21.1333 4.48333 19.6833 5.76667 18.35 7.4C17.0167 9.03333 15.8333 10.9 14.8 13C13.8 15.1 13.0167 17.3333 12.45 19.7C11.8833 22.0333 11.6 24.3667 11.6 26.7C11.6 30.0333 12.2167 32.5167 13.45 34.15C14.7167 35.75 16.4167 36.55 18.55 36.55C19.8167 36.55 21.1833 36.25 22.65 35.65C24.1167 35.05 25.3833 34.1833 26.45 33.05C27.35 32.1167 28.1167 31.05 28.75 29.85C29.4167 28.65 30.15 27.0833 30.95 25.15H32.05C31.2167 28.1833 30.5667 30.6333 30.1 32.5C29.6667 34.3333 29.3333 35.8833 29.1 37.15H28C28.1 36.45 28.15 35.8833 28.15 35.45C28.15 34.7167 28.0167 34.3 27.75 34.2C27.4833 34.1 27.0667 34.2333 26.5 34.6C25.6333 35.2 24.7167 35.75 23.75 36.25C22.7833 36.7167 21.7333 37.1 20.6 37.4C19.5 37.7 18.25 37.85 16.85 37.85C12.6167 37.85 9.41667 36.8 7.25 34.7C5.08333 32.6 4 29.6 4 25.7C4 23.3667 4.36667 21.0333 5.1 18.7C5.86667 16.3667 6.93333 14.15 8.3 12.05C9.7 9.91667 11.35 8.03333 13.25 6.4C15.1833 4.73333 17.3167 3.43333 19.65 2.5C22.0167 1.53333 24.55 1.05 27.25 1.05C28.65 1.05 29.8 1.21667 30.7 1.55C31.6 1.85 32.3667 2.25 33 2.75C33.6333 3.21667 34.1833 3.73333 34.65 4.3C35.1167 4.8 35.5667 4.86667 36 4.5C36.4333 4.1 36.9 3.18333 37.4 1.75H38.45ZM49.8785 31.85C49.7452 32.1 49.5452 32.3667 49.2785 32.65C49.0285 32.9167 48.6952 33.15 48.2785 33.35C47.8785 33.5333 47.3952 33.625 46.8285 33.625C46.3452 33.625 45.8785 33.5417 45.4285 33.375C44.9952 33.1917 44.6368 32.9 44.3535 32.5C44.0702 32.1 43.9285 31.5667 43.9285 30.9C43.9285 29.8667 44.2952 29.0083 45.0285 28.325C45.7785 27.625 46.8452 27.0417 48.2285 26.575C48.6285 26.4417 49.0952 26.2917 49.6285 26.125C50.1785 25.9417 50.7452 25.75 51.3285 25.55C51.9285 25.35 52.5202 25.1417 53.1035 24.925C53.7035 24.7083 54.2535 24.5 54.7535 24.3C55.2368 24.1 55.6952 23.8833 56.1285 23.65C56.5785 23.4167 56.9452 23.1333 57.2285 22.8C57.5118 22.4667 57.6535 22.0667 57.6535 21.6C57.6535 20.9667 57.4119 20.4583 56.9285 20.075C56.4452 19.6917 55.8618 19.5 55.1785 19.5C54.8118 19.5 54.5619 19.5583 54.4285 19.675C54.7285 19.8083 54.9452 19.9917 55.0785 20.225C55.2285 20.4417 55.3035 20.6833 55.3035 20.95C55.3035 21.2833 55.2035 21.5833 55.0035 21.85C54.8202 22.1 54.5702 22.3 54.2535 22.45C53.9368 22.5833 53.6118 22.65 53.2785 22.65C52.8118 22.65 52.4285 22.525 52.1285 22.275C51.8285 22.0083 51.6785 21.6583 51.6785 21.225C51.6785 20.8083 51.8202 20.45 52.1035 20.15C52.3869 19.85 52.7285 19.6167 53.1285 19.45C53.4452 19.3167 53.7785 19.225 54.1285 19.175C54.4785 19.125 54.8035 19.1 55.1035 19.1C55.7368 19.1 56.3035 19.2083 56.8035 19.425C57.3035 19.625 57.6952 19.9583 57.9785 20.425C58.2618 20.875 58.4035 21.4917 58.4035 22.275C58.4035 23.0417 58.2452 23.7083 57.9285 24.275C57.6285 24.8417 57.1702 25.35 56.5535 25.8C55.9368 26.2333 55.1618 26.6333 54.2285 27C53.7785 27.2 53.2618 27.4083 52.6785 27.625C52.0952 27.825 51.4952 28.0333 50.8785 28.25C50.2618 28.4667 49.6618 28.675 49.0785 28.875C48.4952 29.075 47.9535 29.2667 47.4535 29.45C47.0535 29.5833 46.6618 29.75 46.2785 29.95C45.9118 30.15 45.6118 30.3917 45.3785 30.675C45.1452 30.9583 45.0285 31.2917 45.0285 31.675C45.0285 32.1917 45.2202 32.575 45.6035 32.825C46.0035 33.0583 46.4452 33.175 46.9285 33.175C47.4285 33.175 47.8535 33.0833 48.2035 32.9C48.5535 32.7 48.8368 32.4833 49.0535 32.25C49.2868 32 49.4368 31.8 49.5035 31.65L49.8785 31.85ZM47.0535 23C47.4702 23 47.8118 22.8833 48.0785 22.65C48.3452 22.4167 48.4785 22.1083 48.4785 21.725C48.4785 21.275 48.2868 20.9167 47.9035 20.65C47.5368 20.3833 47.0618 20.25 46.4785 20.25C45.8618 20.25 45.2868 20.4083 44.7535 20.725C44.2368 21.025 43.8202 21.45 43.5035 22C43.2035 22.5333 43.0535 23.15 43.0535 23.85C43.0535 24.1 43.0785 24.3583 43.1285 24.625C43.1785 24.8917 43.2702 25.15 43.4035 25.4C43.7035 25.35 44.0035 25.3167 44.3035 25.3C44.6035 25.2667 44.8285 25.25 44.9785 25.25C45.5785 25.25 45.8785 25.425 45.8785 25.775C45.8785 25.9583 45.7952 26.0917 45.6285 26.175C45.4618 26.2583 45.2868 26.3 45.1035 26.3C44.7868 26.3 44.4618 26.2333 44.1285 26.1C43.8118 25.95 43.5618 25.8333 43.3785 25.75C42.7285 25.9667 42.1535 26.3333 41.6535 26.85C41.1535 27.35 40.7618 27.9417 40.4785 28.625C40.1952 29.3083 40.0535 30.0417 40.0535 30.825C40.0535 31.8417 40.2952 32.6917 40.7785 33.375C41.2618 34.0583 41.9452 34.575 42.8285 34.925C43.7118 35.275 44.7452 35.45 45.9285 35.45C46.8118 35.45 47.6535 35.35 48.4535 35.15C49.2702 34.95 49.9952 34.6583 50.6285 34.275C51.2618 33.875 51.7618 33.3833 52.1285 32.8C52.4952 32.2167 52.6785 31.55 52.6785 30.8C52.6785 30.1833 52.5202 29.5667 52.2035 28.95C51.9035 28.3167 51.3785 27.8083 50.6285 27.425L50.9535 27.225C51.6702 27.6417 52.2202 28.1833 52.6035 28.85C52.9868 29.5 53.1785 30.2417 53.1785 31.075C53.1785 31.8583 52.9952 32.6333 52.6285 33.4C52.2618 34.1667 51.7035 34.8583 50.9535 35.475C50.2202 36.0917 49.3035 36.5833 48.2035 36.95C47.1202 37.3167 45.8452 37.5 44.3785 37.5C42.8952 37.5 41.5785 37.2917 40.4285 36.875C39.2952 36.4583 38.4035 35.85 37.7535 35.05C37.1035 34.2333 36.7785 33.2417 36.7785 32.075C36.7785 31.025 37.0368 30.0583 37.5535 29.175C38.0868 28.2917 38.8202 27.5417 39.7535 26.925C40.7035 26.2917 41.8035 25.8333 43.0535 25.55C42.3535 25.2667 41.8368 24.8833 41.5035 24.4C41.1702 23.9167 41.0035 23.4083 41.0035 22.875C41.0035 22.1583 41.2535 21.5583 41.7535 21.075C42.2535 20.5917 42.8785 20.225 43.6285 19.975C44.3785 19.725 45.1368 19.6 45.9035 19.6C46.9202 19.6 47.6952 19.7917 48.2285 20.175C48.7618 20.5583 49.0285 21.0583 49.0285 21.675C49.0285 22.275 48.8035 22.725 48.3535 23.025C47.9202 23.3083 47.4785 23.45 47.0285 23.45L47.0535 23ZM87.9199 18.85L87.7699 19.85H69.5199L69.6699 18.85H87.9199ZM79.1199 8.2C77.9866 8.2 76.9533 8.06667 76.0199 7.8C75.0866 7.53333 74.1866 7.23333 73.3199 6.9C72.4533 6.56667 71.5699 6.26667 70.6699 6C69.8033 5.73333 68.8533 5.6 67.8199 5.6C66.8533 5.6 66.0866 5.86667 65.5199 6.4C64.9866 6.9 64.7366 7.63333 64.7699 8.6C64.7699 9.63333 65.1699 10.4833 65.9699 11.15C66.8033 11.7833 68.0533 12.2 69.7199 12.4C69.7199 12.4 69.7033 12.5667 69.6699 12.9C69.6366 13.2 69.6199 13.35 69.6199 13.35C68.2199 13.1833 66.9366 12.85 65.7699 12.35C64.6366 11.85 63.7199 11.1333 63.0199 10.2C62.3199 9.26667 61.9699 8.1 61.9699 6.7C61.9366 4.8 62.4866 3.25 63.6199 2.05C64.7533 0.816667 66.4199 0.2 68.6199 0.2C69.8533 0.2 70.9533 0.383333 71.9199 0.749999C72.8866 1.08333 73.7866 1.5 74.6199 2C75.4533 2.5 76.2866 3.01667 77.1199 3.55C77.9533 4.05 78.8533 4.48333 79.8199 4.85C80.7866 5.18333 81.8866 5.35 83.1199 5.35C84.5866 5.35 86.0033 5.18333 87.3699 4.85C88.7699 4.48333 90.2199 3.96667 91.7199 3.3C92.4199 2.23333 93.1033 1.41667 93.7699 0.850001C94.4366 0.283334 95.0199 0.216667 95.5199 0.650001C95.9199 0.983334 95.9033 1.43333 95.4699 2C95.0366 2.56667 93.9366 3.18333 92.1699 3.85C89.6033 5.75 87.5366 8.25 85.9699 11.35C84.4033 14.45 83.1199 17.9333 82.1199 21.8L79.0199 33.9C78.4533 36.1667 77.5866 38.25 76.4199 40.15C75.2533 42.0833 73.7533 43.6333 71.9199 44.8C70.0866 45.9667 67.8366 46.55 65.1699 46.55C64.0033 46.55 62.9366 46.4333 61.9699 46.2C61.0033 45.9667 60.2366 45.5833 59.6699 45.05C59.1366 44.55 58.8533 43.9 58.8199 43.1C58.7866 42.1667 59.1033 41.35 59.7699 40.65C60.4366 39.95 61.3699 39.6 62.5699 39.6C63.4699 39.6 64.2366 39.8333 64.8699 40.3C65.5033 40.7667 65.8199 41.4167 65.8199 42.25C65.8533 42.9833 65.6366 43.6167 65.1699 44.15C64.7033 44.7167 64.0866 45.1833 63.3199 45.55C63.5866 45.5833 63.8366 45.6167 64.0699 45.65C64.3033 45.7167 64.5533 45.75 64.8199 45.75C65.9533 45.75 66.9033 45.4 67.6699 44.7C68.4366 44 69.0866 43.0333 69.6199 41.8C70.1533 40.6 70.6366 39.1833 71.0699 37.55C71.5366 35.95 72.0199 34.2333 72.5199 32.4L74.7699 24.05C75.4699 21.55 76.3366 19.35 77.3699 17.45C78.4033 15.5167 79.6033 13.8 80.9699 12.3C82.3699 10.7667 83.9033 9.36667 85.5699 8.1C87.2366 6.8 89.0033 5.51667 90.8699 4.25C89.7366 4.68333 88.6866 5.13333 87.7199 5.6C86.7533 6.06667 85.8199 6.5 84.9199 6.9C84.0199 7.26667 83.0866 7.58333 82.1199 7.85C81.1866 8.08333 80.1866 8.2 79.1199 8.2Z" fill="#1e3932"/>
</g>
<defs>
<filter id="filter0_d_2_2" x="0" y="0" width="100.12" height="54.55" filterUnits="userSpaceOnUse" color-interpolation-filters="sRGB">
<feFlood flood-opacity="0" result="BackgroundImageFix"/>
<feColorMatrix in="SourceAlpha" type="matrix" values="0 0 0 0 0 0 0 0 0 0 0 0 0 0 0 0 0 0 127 0" result="hardAlpha"/>
<feOffset dy="4"/>
<feGaussianBlur stdDeviation="2"/>
<feComposite in2="hardAlpha" operator="out"/>
<feColorMatrix type="matrix" values="0 0 0 0 0 0 0 0 0 0 0 0 0 0 0 0 0 0 0.25 0"/>
<feBlend mode="normal" in2="BackgroundImageFix" result="effect1_dropShadow_2_2"/>
<feBlend mode="normal" in="SourceGraphic" in2="effect1_dropShadow_2_2" result="shape"/>
</filter>
</defs>
</svg>
